<svg width="241" height="15" viewBox="0 0 241 15" fill="none" xmlns="http://www.w3.org/2000/svg">
<path d="M10.26 11.22C8.86 11.22 7.69333 10.88 6.76 10.2C5.84 9.50667 5.25333 8.56 5 7.36H3.68V11H0.2V1.16H3.68V4.62H5.02C5.3 3.46 5.9 2.56 6.82 1.92C7.74 1.26667 8.88667 0.94 10.26 0.94C11.3533 0.94 12.3067 1.14667 13.12 1.56C13.9333 1.97333 14.5667 2.56667 15.02 3.34C15.4733 4.1 15.7 5.01333 15.7 6.08C15.7 7.13333 15.4733 8.04667 15.02 8.82C14.5667 9.59333 13.9333 10.1867 13.12 10.6C12.3067 11.0133 11.3533 11.22 10.26 11.22ZM10.26 8.6C10.8067 8.6 11.2533 8.4 11.6 8C11.9467 7.6 12.12 6.96 12.12 6.08C12.12 5.18667 11.9467 4.54667 11.6 4.16C11.2533 3.76 10.8067 3.56 10.26 3.56C9.71333 3.56 9.26667 3.76 8.92 4.16C8.57333 4.54667 8.4 5.18667 8.4 6.08C8.4 6.96 8.57333 7.6 8.92 8C9.26667 8.4 9.71333 8.6 10.26 8.6ZM17.6809 14.6V1.16H21.1409V2.5C21.4076 2.02 21.8143 1.64 22.3609 1.36C22.9076 1.08 23.5076 0.94 24.1609 0.94C25.0009 0.94 25.7409 1.14667 26.3809 1.56C27.0343 1.97333 27.5409 2.56667 27.9009 3.34C28.2743 4.1 28.4609 5.01333 28.4609 6.08C28.4609 7.13333 28.2809 8.04667 27.9209 8.82C27.5609 9.59333 27.0543 10.1867 26.4009 10.6C25.7609 11.0133 25.0143 11.22 24.1609 11.22C23.5476 11.22 22.9743 11.0933 22.4409 10.84C21.9209 10.5867 21.5209 10.2467 21.2409 9.82V14.6H17.6809ZM23.0409 8.6C23.5743 8.6 24.0143 8.4 24.3609 8C24.7076 7.6 24.8809 6.96 24.8809 6.08C24.8809 5.18667 24.7076 4.54667 24.3609 4.16C24.0143 3.76 23.5743 3.56 23.0409 3.56C22.4943 3.56 22.0476 3.76 21.7009 4.16C21.3543 4.54667 21.1809 5.18667 21.1809 6.08C21.1809 6.96 21.3543 7.6 21.7009 8C22.0476 8.4 22.4943 8.6 23.0409 8.6ZM30.4148 11V1.16H33.6148V6.48L37.6548 1.16H40.5748V11H37.3748V5.66L33.3348 11H30.4148ZM42.2734 13.6V8.32H43.5134C43.8068 7.78667 44.0134 7.18 44.1334 6.5C44.2668 5.82 44.3334 4.92667 44.3334 3.82V1.16H52.8334V8.32H54.4934V13.6H51.4934V11H45.2734V13.6H42.2734ZM46.6134 8.34H49.5134V3.84H47.3134V4.78C47.3134 5.42 47.2534 6.06 47.1334 6.7C47.0134 7.34 46.8401 7.88667 46.6134 8.34ZM55.9617 11V1.16H59.1617V6.48L63.2017 1.16H66.1217V11H62.9217V5.66L58.8817 11H55.9617ZM74.6403 11V7.94C74.2936 8.06 73.9603 8.14667 73.6403 8.2C73.3203 8.25333 73.007 8.28 72.7003 8.28C69.647 8.28 68.1203 6.78 68.1203 3.78V1.16H71.6803V3.46C71.6803 4.16667 71.807 4.67333 72.0603 4.98C72.327 5.28667 72.787 5.44 73.4403 5.44C73.6536 5.44 73.8536 5.42 74.0403 5.38C74.2403 5.34 74.4136 5.28 74.5603 5.2V1.16H78.1203V11H74.6403ZM85.8925 11.22C84.6925 11.22 83.6525 11.0133 82.7725 10.6C81.9058 10.1733 81.2392 9.57333 80.7725 8.8C80.3058 8.02667 80.0725 7.11333 80.0725 6.06C80.0725 5.06 80.2925 4.17333 80.7325 3.4C81.1858 2.62667 81.7992 2.02667 82.5725 1.6C83.3592 1.16 84.2525 0.94 85.2525 0.94C86.2392 0.94 87.0925 1.14667 87.8125 1.56C88.5458 1.97333 89.1058 2.56667 89.4925 3.34C89.8925 4.1 90.0925 4.99333 90.0925 6.02V6.8H83.4725C83.5925 7.44 83.8592 7.9 84.2725 8.18C84.6858 8.46 85.2592 8.6 85.9925 8.6C86.4992 8.6 87.0258 8.52667 87.5725 8.38C88.1325 8.22 88.6258 7.99333 89.0525 7.7L89.9325 10.04C89.4258 10.4 88.8058 10.6867 88.0725 10.9C87.3392 11.1133 86.6125 11.22 85.8925 11.22ZM85.4125 3.24C84.8792 3.24 84.4392 3.4 84.0925 3.72C83.7592 4.04 83.5458 4.50667 83.4525 5.12H87.1725C87.1325 4.49333 86.9592 4.02667 86.6525 3.72C86.3592 3.4 85.9458 3.24 85.4125 3.24ZM97.0173 11.22C95.9107 11.22 94.944 11.0133 94.1173 10.6C93.304 10.1867 92.6707 9.59333 92.2173 8.82C91.764 8.04667 91.5373 7.12667 91.5373 6.06C91.5373 4.99333 91.764 4.08 92.2173 3.32C92.6707 2.54667 93.304 1.96 94.1173 1.56C94.944 1.14667 95.9107 0.94 97.0173 0.94C97.6707 0.94 98.3173 1.03333 98.9573 1.22C99.6107 1.39333 100.144 1.64 100.557 1.96L99.6173 4.4C99.3107 4.16 98.9507 3.97333 98.5373 3.84C98.1373 3.69333 97.7573 3.62 97.3973 3.62C96.6907 3.62 96.144 3.83333 95.7573 4.26C95.3707 4.68667 95.1773 5.28667 95.1773 6.06C95.1773 6.84667 95.3707 7.46 95.7573 7.9C96.144 8.32667 96.6907 8.54 97.3973 8.54C97.7573 8.54 98.1373 8.47333 98.5373 8.34C98.9507 8.19333 99.3107 8 99.6173 7.76L100.557 10.2C100.144 10.52 99.6107 10.7733 98.9573 10.96C98.304 11.1333 97.6573 11.22 97.0173 11.22ZM102.016 11V1.16H105.576V4.64H106.536L108.936 1.16H112.696L109.676 5.58C109.943 5.75333 110.176 5.96667 110.376 6.22C110.59 6.46 110.776 6.72667 110.936 7.02L113.056 11H109.276L107.776 8.2C107.59 7.88 107.403 7.66 107.216 7.54C107.03 7.42 106.79 7.36 106.496 7.36H105.576V11H102.016ZM117.429 11.22C116.669 11.22 115.996 11.08 115.409 10.8C114.836 10.52 114.382 10.14 114.049 9.66C113.729 9.16667 113.569 8.60667 113.569 7.98C113.569 7.27333 113.756 6.71333 114.129 6.3C114.502 5.87333 115.102 5.57333 115.929 5.4C116.756 5.21333 117.856 5.12 119.229 5.12H119.989V4.84C119.989 4.36 119.862 4.02 119.609 3.82C119.369 3.62 118.949 3.52 118.349 3.52C117.842 3.52 117.282 3.6 116.669 3.76C116.056 3.92 115.456 4.16667 114.869 4.5L113.969 2.16C114.302 1.92 114.729 1.70667 115.249 1.52C115.769 1.33333 116.316 1.19333 116.889 1.1C117.462 0.993333 118.002 0.94 118.509 0.94C120.149 0.94 121.362 1.29333 122.149 2C122.949 2.70667 123.349 3.82 123.349 5.34V11H120.029V9.6C119.856 10.1067 119.542 10.5067 119.089 10.8C118.636 11.08 118.082 11.22 117.429 11.22ZM118.229 8.9C118.722 8.9 119.136 8.74 119.469 8.42C119.816 8.1 119.989 7.68 119.989 7.16V6.8H119.229C118.442 6.8 117.862 6.88667 117.489 7.06C117.129 7.22 116.949 7.48 116.949 7.84C116.949 8.14667 117.056 8.4 117.269 8.6C117.496 8.8 117.816 8.9 118.229 8.9ZM124.828 11L126.208 8.58C126.581 7.92667 127.074 7.48 127.688 7.24C126.101 6.90667 125.308 5.94 125.308 4.34C125.308 3.34 125.654 2.56 126.348 2C127.041 1.44 128.041 1.16 129.348 1.16H135.048V11H131.788V8.02H131.188C130.961 8.02 130.748 8.09333 130.548 8.24C130.348 8.38667 130.174 8.58 130.028 8.82L128.808 11H124.828ZM130.128 5.78H131.788V3.4H130.128C129.634 3.4 129.261 3.50667 129.008 3.72C128.754 3.92 128.628 4.20667 128.628 4.58C128.628 4.95333 128.754 5.24667 129.008 5.46C129.261 5.67333 129.634 5.78 130.128 5.78ZM143.169 11V1.16H146.729V4.64H147.689L150.089 1.16H153.849L150.829 5.58C151.095 5.75333 151.329 5.96667 151.529 6.22C151.742 6.46 151.929 6.72667 152.089 7.02L154.209 11H150.429L148.929 8.2C148.742 7.88 148.555 7.66 148.369 7.54C148.182 7.42 147.942 7.36 147.649 7.36H146.729V11H143.169ZM160.141 11.22C159.048 11.22 158.095 11.0133 157.281 10.6C156.468 10.1867 155.835 9.59333 155.381 8.82C154.928 8.04667 154.701 7.13333 154.701 6.08C154.701 5.01333 154.928 4.1 155.381 3.34C155.835 2.56667 156.468 1.97333 157.281 1.56C158.095 1.14667 159.048 0.94 160.141 0.94C161.235 0.94 162.188 1.14667 163.001 1.56C163.815 1.97333 164.441 2.56667 164.881 3.34C165.335 4.1 165.561 5.01333 165.561 6.08C165.561 7.13333 165.335 8.04667 164.881 8.82C164.441 9.59333 163.815 10.1867 163.001 10.6C162.188 11.0133 161.235 11.22 160.141 11.22ZM160.141 8.6C160.675 8.6 161.115 8.4 161.461 8C161.808 7.6 161.981 6.96 161.981 6.08C161.981 5.18667 161.808 4.54667 161.461 4.16C161.115 3.76 160.675 3.56 160.141 3.56C159.595 3.56 159.148 3.76 158.801 4.16C158.455 4.54667 158.281 5.18667 158.281 6.08C158.281 6.96 158.455 7.6 158.801 8C159.148 8.4 159.595 8.6 160.141 8.6ZM167.524 11V1.16H170.444L173.504 6.06L176.544 1.16H179.444V11H176.324V6.1L174.284 9.38H172.684L170.644 6.1V11H167.524ZM181.841 11V1.16H192.041V11H188.481V3.88H185.401V11H181.841ZM197.878 11.22C197.118 11.22 196.445 11.08 195.858 10.8C195.285 10.52 194.832 10.14 194.498 9.66C194.178 9.16667 194.018 8.60667 194.018 7.98C194.018 7.27333 194.205 6.71333 194.578 6.3C194.952 5.87333 195.552 5.57333 196.378 5.4C197.205 5.21333 198.305 5.12 199.678 5.12H200.438V4.84C200.438 4.36 200.312 4.02 200.058 3.82C199.818 3.62 199.398 3.52 198.798 3.52C198.292 3.52 197.732 3.6 197.118 3.76C196.505 3.92 195.905 4.16667 195.318 4.5L194.418 2.16C194.752 1.92 195.178 1.70667 195.698 1.52C196.218 1.33333 196.765 1.19333 197.338 1.1C197.912 0.993333 198.452 0.94 198.958 0.94C200.598 0.94 201.812 1.29333 202.598 2C203.398 2.70667 203.798 3.82 203.798 5.34V11H200.478V9.6C200.305 10.1067 199.992 10.5067 199.538 10.8C199.085 11.08 198.532 11.22 197.878 11.22ZM198.678 8.9C199.172 8.9 199.585 8.74 199.918 8.42C200.265 8.1 200.438 7.68 200.438 7.16V6.8H199.678C198.892 6.8 198.312 6.88667 197.938 7.06C197.578 7.22 197.398 7.48 197.398 7.84C197.398 8.14667 197.505 8.4 197.718 8.6C197.945 8.8 198.265 8.9 198.678 8.9ZM206.157 11V1.16H209.717V4.62H212.857V1.16H216.417V11H212.857V7.36H209.717V11H206.157ZM218.813 11V1.16H222.013V6.48L226.053 1.16H228.973V11H225.773V5.66L221.733 11H218.813ZM230.492 11L231.872 8.58C232.245 7.92667 232.739 7.48 233.352 7.24C231.765 6.90667 230.972 5.94 230.972 4.34C230.972 3.34 231.319 2.56 232.012 2C232.705 1.44 233.705 1.16 235.012 1.16H240.712V11H237.452V8.02H236.852C236.625 8.02 236.412 8.09333 236.212 8.24C236.012 8.38667 235.839 8.58 235.692 8.82L234.472 11H230.492ZM235.792 5.78H237.452V3.4H235.792C235.299 3.4 234.925 3.50667 234.672 3.72C234.419 3.92 234.292 4.20667 234.292 4.58C234.292 4.95333 234.419 5.24667 234.672 5.46C234.925 5.67333 235.299 5.78 235.792 5.78Z" fill="white"/>
</svg>
